<?xml version="1.0" encoding="utf-8"?>
<!-- Generator: Adobe Illustrator 27.0.0, SVG Export Plug-In . SVG Version: 6.00 Build 0)  -->
<svg version="1.1" id="Layer_1" xmlns="http://www.w3.org/2000/svg" xmlns:xlink="http://www.w3.org/1999/xlink" x="0px" y="0px"
	 viewBox="0 0 550 454" style="enable-background:new 0 0 550 454;" xml:space="preserve">
<style type="text/css">
	
		.st0{clip-path:url(#SVGID_00000119119559464704357930000001306654253966883759_);fill:url(#SVGID_00000123420763107886737270000004862244097299850401_);stroke:#000000;stroke-miterlimit:10;}
</style>
<g>
	<defs>
		<path id="SVGID_1_" transform="translate(0.000000,454.000000) scale(0.100000,-0.100000)" d="M2285,4496c-64-28-97-95-139-276
			c-45-197-46-535-2-735c87-400,293-723,586-922c66-45,215-119,290-144c104-34,205-48,353-49c149,0,192-10,221-51c20-30,21-88,0-117
			c-31-45-43-47-388-52c-318-5-329-6-342-26c-12-17-12-23,0-40c13-17,28-19,123-20c192-3,182-2,214-33c49-49,32-132-34-168
			c-30-17-115-18-1463-19c-1377-1-1433-2-1463-20c-41-24-75-94-68-139s33-82,71-103c29-16,134-17,1357-22c1408-5,1338-3,1377-49
			c6-8,12-36,12-61c0-37-5-51-27-72c-16-15-41-32-56-37c-19-8-396-11-1198-11c-1152,0-1170,0-1209-20c-47-24-73-69-73-128
			c0-46,20-81,67-116c27-21,36-21,1151-26c1121-5,1124-5,1152-26c66-49,50-148-30-184c-40-19-75-20-957-20c-565,0-928-4-949-10
			c-109-31-124-138-42-305c120-242,371-436,612-474c84-13,3219-23,3350-11c279,27,532,213,641,472c59,140,57,103,58,1336
			c2,1090,1,1134-17,1170c-25,49-98,87-148,78c-41-8-88-45-104-83c-8-20-12-341-14-1163c-2-1131-2-1135-23-1197
			c-57-165-198-294-353-323c-75-14-3252-14-3341,1c-101,16-181,58-261,138c-38,38-69,74-69,79c0,8,232,12,743,14l742,4l115,31
			c350,95,673,313,948,642c193,230,343,490,492,851c213,517,364,706,687,856c52,25,91,49,88,55c-12,19-208,111-309,144
			c-123,41-210,52-302,36c-139-25-303-115-394-218c-39-44-43-47-54-29c-77,131-220,272-368,362c-45,28-140,86-209,129
			c-351,213-553,443-784,894c-56,108-100,182-116,194C2395,4508,2324,4514,2285,4496z M2486,3758c77-154,239-366,372-489
			c90-83,240-181,367-238c133-61,154-75,171-118c30-71-14-147-91-158c-79-12-274,55-390,135c-261,179-453,524-472,848
			c-3,50-3,92,0,92C2447,3830,2466,3797,2486,3758z M4509,2984c28-35,26-69-4-99c-31-32-69-32-100,0c-29,29-33,79-8,107
			C4423,3021,4484,3016,4509,2984z M1410,4155c-221-45-408-168-532-348c-75-109-96-196-66-262c19-42,72-68,124-62
			c56,6,73,22,139,122c110,170,240,254,428,279c88,12,114,19,142,41c65,49,81,113,45,173C1646,4169,1564,4186,1410,4155z M3134,4159
			c-44-13-81-50-95-97s-8-78,22-116c50-64,0-61,909-61c796-1,827-2,881-21c168-59,303-198,340-350c16-67,33-97,69-128
			c62-51,162-24,203,54c23,44,17,113-19,208c-101,270-361,476-646,512C4696,4172,3179,4172,3134,4159z M135,3261c-22-4-53-16-68-26
			c-37-27-61-94-52-142c8-45,60-97,105-107c18-3,243-6,500-6c516,0,565-4,726-61c121-42,183-75,315-165c125-85,163-97,222-69
			c80,38,99,136,43,210c-59,77-323,236-489,294c-203,71-230,74-772,77C396,3267,157,3265,135,3261z M671,2689c-18-6-44-17-56-25
			c-62-41-73-159-19-215c60-63,111-73,184-36c57,28,90,77,90,132C870,2641,766,2716,671,2689z M1100,2348c-110-56-102-209,13-253
			c37-14,108-15,627-13c541,3,587,4,618,21c100,55,94,195-12,246c-41,21-56,21-622,21h-580L1100,2348z M4430,1829
			c-156-198-215-461-150-673c65-209,275-387,573-486l68-22l25,23c13,12,24,29,24,38c0,8-41,53-90,99c-50,46-102,104-116,127l-25,44
			l36,75c85,177,84,343-4,521c-63,127-231,305-287,305C4476,1880,4452,1857,4430,1829z"/>
	</defs>
	<clipPath id="SVGID_00000128444213536329642140000012229813343845129092_">
		<use xlink:href="#SVGID_1_"  style="overflow:visible;"/>
	</clipPath>
	
		<radialGradient id="SVGID_00000025415178960318478230000015156574333126929283_" cx="273" cy="212.5" r="273.7638" gradientUnits="userSpaceOnUse">
		<stop  offset="0" style="stop-color:#5858B9"/>
		<stop  offset="1" style="stop-color:#182468"/>
	</radialGradient>
	
		<rect x="-28" y="-31" style="clip-path:url(#SVGID_00000128444213536329642140000012229813343845129092_);fill:url(#SVGID_00000025415178960318478230000015156574333126929283_);stroke:#000000;stroke-miterlimit:10;" width="602" height="487"/>
</g>
</svg>
